M48
;DRILL file {KiCad (5.0.2)-1} date 05/06/2019 09:41:11
;FORMAT={-:-/ absolute / inch / decimal}
FMAT,2
INCH,TZ
T1C0.0157
T2C0.0197
T3C0.0315
T4C0.0354
%
G90
G05
T1
X6.Y-3.4
X6.092Y-2.8575
X6.6Y-3.2
X6.667Y-3.039
T2
X5.55Y-2.7106
X5.55Y-2.75
T3
X6.25Y-3.75
X6.35Y-3.75
X6.25Y-3.6
X6.35Y-3.6
X6.25Y-3.3
X6.35Y-3.3
X6.25Y-3.45
X6.35Y-3.45
X5.75Y-3.15
X6.05Y-3.15
X6.25Y-3.15
X6.35Y-3.15
T4
X6.25Y-2.95
X6.35Y-2.95
X6.25Y-4.
X6.35Y-4.
X5.95Y-2.45
X6.05Y-2.45
X6.55Y-2.45
X6.65Y-2.45
X7.15Y-2.45
X7.25Y-2.45
X7.05Y-3.1
X7.15Y-3.1
X5.45Y-3.1
X5.55Y-3.1
X5.85Y-3.55
X5.95Y-3.55
X5.35Y-2.45
X5.45Y-2.45
X6.65Y-3.55
X6.75Y-3.55
T0
M30
