G04 #@! TF.GenerationSoftware,KiCad,Pcbnew,(5.0.2)-1*
G04 #@! TF.CreationDate,2019-06-05T09:41:08+02:00*
G04 #@! TF.ProjectId,circuit,63697263-7569-4742-9e6b-696361645f70,rev?*
G04 #@! TF.SameCoordinates,Original*
G04 #@! TF.FileFunction,Copper,L1,Top*
G04 #@! TF.FilePolarity,Positive*
%FSLAX46Y46*%
G04 Gerber Fmt 4.6, Leading zero omitted, Abs format (unit mm)*
G04 Created by KiCad (PCBNEW (5.0.2)-1) date 05/06/2019 09:41:08*
%MOMM*%
%LPD*%
G01*
G04 APERTURE LIST*
G04 #@! TA.AperFunction,ComponentPad*
%ADD10R,1.800000X1.800000*%
G04 #@! TD*
G04 #@! TA.AperFunction,ComponentPad*
%ADD11C,1.800000*%
G04 #@! TD*
G04 #@! TA.AperFunction,ComponentPad*
%ADD12C,1.600000*%
G04 #@! TD*
G04 #@! TA.AperFunction,ComponentPad*
%ADD13O,1.600000X1.600000*%
G04 #@! TD*
G04 #@! TA.AperFunction,ComponentPad*
%ADD14R,0.850000X0.850000*%
G04 #@! TD*
G04 #@! TA.AperFunction,ComponentPad*
%ADD15O,0.850000X0.850000*%
G04 #@! TD*
G04 #@! TA.AperFunction,ComponentPad*
%ADD16R,1.600000X1.600000*%
G04 #@! TD*
G04 #@! TA.AperFunction,ViaPad*
%ADD17C,0.800000*%
G04 #@! TD*
G04 #@! TA.AperFunction,Conductor*
%ADD18C,0.250000*%
G04 #@! TD*
G04 APERTURE END LIST*
D10*
G04 #@! TO.P,Dred1,1*
G04 #@! TO.N,Net-(Dred1-Pad1)*
X166370000Y-62230000D03*
D11*
G04 #@! TO.P,Dred1,2*
G04 #@! TO.N,Net-(Dred1-Pad2)*
X168910000Y-62230000D03*
G04 #@! TD*
D10*
G04 #@! TO.P,Dred2,1*
G04 #@! TO.N,Net-(Dred2-Pad1)*
X181610000Y-62230000D03*
D11*
G04 #@! TO.P,Dred2,2*
G04 #@! TO.N,Net-(Dred1-Pad1)*
X184150000Y-62230000D03*
G04 #@! TD*
G04 #@! TO.P,Dred3,2*
G04 #@! TO.N,Net-(Dred1-Pad2)*
X171450000Y-90170000D03*
D10*
G04 #@! TO.P,Dred3,1*
G04 #@! TO.N,Net-(Dred3-Pad1)*
X168910000Y-90170000D03*
G04 #@! TD*
D11*
G04 #@! TO.P,Dred4,2*
G04 #@! TO.N,Net-(Dred3-Pad1)*
X181610000Y-78740000D03*
D10*
G04 #@! TO.P,Dred4,1*
G04 #@! TO.N,Net-(Dred4-Pad1)*
X179070000Y-78740000D03*
G04 #@! TD*
D11*
G04 #@! TO.P,Dred5,2*
G04 #@! TO.N,Net-(Dred1-Pad2)*
X153670000Y-62230000D03*
D10*
G04 #@! TO.P,Dred5,1*
G04 #@! TO.N,Net-(Dred5-Pad1)*
X151130000Y-62230000D03*
G04 #@! TD*
G04 #@! TO.P,Dred6,1*
G04 #@! TO.N,Net-(Dred6-Pad1)*
X158750000Y-74930000D03*
D11*
G04 #@! TO.P,Dred6,2*
G04 #@! TO.N,Net-(Dred5-Pad1)*
X161290000Y-74930000D03*
G04 #@! TD*
D10*
G04 #@! TO.P,Dred7,1*
G04 #@! TO.N,Net-(Dred7-Pad1)*
X135890000Y-62230000D03*
D11*
G04 #@! TO.P,Dred7,2*
G04 #@! TO.N,Net-(Dred1-Pad2)*
X138430000Y-62230000D03*
G04 #@! TD*
G04 #@! TO.P,Dred8,2*
G04 #@! TO.N,Net-(Dred7-Pad1)*
X140970000Y-78740000D03*
D10*
G04 #@! TO.P,Dred8,1*
G04 #@! TO.N,Net-(Dred8-Pad1)*
X138430000Y-78740000D03*
G04 #@! TD*
G04 #@! TO.P,Dred9,1*
G04 #@! TO.N,Net-(Dred10-Pad2)*
X158750000Y-101600000D03*
D11*
G04 #@! TO.P,Dred9,2*
G04 #@! TO.N,Net-(Dred1-Pad2)*
X161290000Y-101600000D03*
G04 #@! TD*
G04 #@! TO.P,Dred10,2*
G04 #@! TO.N,Net-(Dred10-Pad2)*
X151130000Y-90170000D03*
D10*
G04 #@! TO.P,Dred10,1*
G04 #@! TO.N,Net-(Dred10-Pad1)*
X148590000Y-90170000D03*
G04 #@! TD*
D12*
G04 #@! TO.P,R1,1*
G04 #@! TO.N,GND*
X158750000Y-95250000D03*
D13*
G04 #@! TO.P,R1,2*
G04 #@! TO.N,Net-(Dred2-Pad1)*
X161290000Y-95250000D03*
G04 #@! TD*
D12*
G04 #@! TO.P,R2,1*
G04 #@! TO.N,GND*
X158750000Y-80010000D03*
D13*
G04 #@! TO.P,R2,2*
G04 #@! TO.N,Net-(Dred4-Pad1)*
X161290000Y-80010000D03*
G04 #@! TD*
G04 #@! TO.P,R3,2*
G04 #@! TO.N,Net-(Dred6-Pad1)*
X161290000Y-87630000D03*
D12*
G04 #@! TO.P,R3,1*
G04 #@! TO.N,GND*
X158750000Y-87630000D03*
G04 #@! TD*
D13*
G04 #@! TO.P,R4,2*
G04 #@! TO.N,Net-(Dred8-Pad1)*
X161290000Y-83820000D03*
D12*
G04 #@! TO.P,R4,1*
G04 #@! TO.N,GND*
X158750000Y-83820000D03*
G04 #@! TD*
G04 #@! TO.P,R5,1*
G04 #@! TO.N,GND*
X158750000Y-91440000D03*
D13*
G04 #@! TO.P,R5,2*
G04 #@! TO.N,Net-(Dred10-Pad1)*
X161290000Y-91440000D03*
G04 #@! TD*
D14*
G04 #@! TO.P,J1,1*
G04 #@! TO.N,GND*
X140970000Y-69850000D03*
D15*
G04 #@! TO.P,J1,2*
G04 #@! TO.N,+9V*
X140970000Y-68850000D03*
G04 #@! TD*
D16*
G04 #@! TO.P,SW1,1*
G04 #@! TO.N,+9V*
X146050000Y-80010000D03*
D13*
G04 #@! TO.P,SW1,2*
G04 #@! TO.N,Net-(Dred1-Pad2)*
X153670000Y-80010000D03*
G04 #@! TD*
D17*
G04 #@! TO.N,Net-(Dred1-Pad2)*
X169341800Y-77190600D03*
X154736800Y-72580500D03*
X167640000Y-81280000D03*
G04 #@! TO.N,Net-(Dred8-Pad1)*
X152400000Y-86360000D03*
G04 #@! TD*
D18*
G04 #@! TO.N,Net-(Dred1-Pad1)*
X183250001Y-61330001D02*
X184150000Y-62230000D01*
X182924999Y-61004999D02*
X183250001Y-61330001D01*
X166445001Y-61004999D02*
X182924999Y-61004999D01*
X166370000Y-61080000D02*
X166445001Y-61004999D01*
X166370000Y-62230000D02*
X166370000Y-61080000D01*
G04 #@! TO.N,Net-(Dred1-Pad2)*
X152770001Y-63129999D02*
X153670000Y-62230000D01*
X152444999Y-63455001D02*
X152770001Y-63129999D01*
X139655001Y-63455001D02*
X152444999Y-63455001D01*
X138430000Y-62230000D02*
X139655001Y-63455001D01*
X168910000Y-63502792D02*
X168910000Y-62230000D01*
X159851047Y-71527888D02*
X160884904Y-71527888D01*
X153670000Y-62230000D02*
X153670000Y-65346841D01*
X171450000Y-85090000D02*
X167640000Y-81280000D01*
X171450000Y-85090000D02*
X171450000Y-90170000D01*
X162562792Y-69850000D02*
X168910000Y-63502792D01*
X154736800Y-71787759D02*
X157423859Y-69100700D01*
X154736800Y-72580500D02*
X154736800Y-71787759D01*
X153670000Y-65346841D02*
X157423859Y-69100700D01*
X157423859Y-69100700D02*
X159851047Y-71527888D01*
X167640000Y-81280000D02*
X167640000Y-81280000D01*
X162283392Y-70132192D02*
X162283392Y-70129400D01*
X169341800Y-77190600D02*
X162283392Y-70132192D01*
X160884904Y-71527888D02*
X162283392Y-70129400D01*
X162283392Y-70129400D02*
X162562792Y-69850000D01*
G04 #@! TO.N,Net-(Dred4-Pad1)*
X162560000Y-78740000D02*
X161290000Y-80010000D01*
X179070000Y-78740000D02*
X162560000Y-78740000D01*
G04 #@! TO.N,Net-(Dred7-Pad1)*
X140070001Y-77840001D02*
X140970000Y-78740000D01*
X139915003Y-77840001D02*
X140070001Y-77840001D01*
X135890000Y-62230000D02*
X135890000Y-63380000D01*
X133350000Y-65920000D02*
X133350000Y-73660000D01*
X135890000Y-63380000D02*
X133350000Y-65920000D01*
X133350000Y-73660000D02*
X135890000Y-76200000D01*
X135890000Y-76200000D02*
X138275002Y-76200000D01*
X138275002Y-76200000D02*
X139915003Y-77840001D01*
G04 #@! TO.N,Net-(Dred8-Pad1)*
X138430000Y-81280000D02*
X138430000Y-78740000D01*
X140970000Y-83820000D02*
X138430000Y-81280000D01*
X152400000Y-86360000D02*
X152400000Y-86360000D01*
X142240000Y-83820000D02*
X140970000Y-83820000D01*
X144780000Y-86360000D02*
X142240000Y-83820000D01*
X152400000Y-86360000D02*
X144780000Y-86360000D01*
G04 #@! TO.N,Net-(Dred10-Pad2)*
X157600000Y-101600000D02*
X158750000Y-101600000D01*
X151130000Y-95130000D02*
X157600000Y-101600000D01*
X151130000Y-91440000D02*
X151130000Y-95130000D01*
X151130000Y-90170000D02*
X151130000Y-92710000D01*
G04 #@! TO.N,Net-(Dred10-Pad1)*
X162560000Y-92710000D02*
X161290000Y-91440000D01*
X165100000Y-92710000D02*
X162560000Y-92710000D01*
X165100000Y-95250000D02*
X165100000Y-92710000D01*
X162560000Y-97790000D02*
X165100000Y-95250000D01*
X148590000Y-88900000D02*
X149860000Y-87630000D01*
X148590000Y-91440000D02*
X148590000Y-88900000D01*
X149860000Y-87630000D02*
X153670000Y-87630000D01*
X153670000Y-93980000D02*
X157480000Y-97790000D01*
X153670000Y-87630000D02*
X153670000Y-93980000D01*
X157480000Y-97790000D02*
X162560000Y-97790000D01*
G04 #@! TO.N,+9V*
X140970000Y-68850000D02*
X140970000Y-66040000D01*
X140970000Y-66040000D02*
X137160000Y-66040000D01*
X137160000Y-66040000D02*
X135890000Y-67310000D01*
X135890000Y-67310000D02*
X135890000Y-71120000D01*
X135890000Y-71120000D02*
X139700000Y-74930000D01*
X139700000Y-74930000D02*
X144780000Y-74930000D01*
X146050000Y-76200000D02*
X146050000Y-80010000D01*
X144780000Y-74930000D02*
X146050000Y-76200000D01*
G04 #@! TO.N,GND*
X158750000Y-95250000D02*
X158750000Y-91440000D01*
X158750000Y-91440000D02*
X158750000Y-87630000D01*
X158750000Y-87630000D02*
X158750000Y-83820000D01*
X159549999Y-80809999D02*
X158750000Y-80010000D01*
X148590000Y-69850000D02*
X140970000Y-69850000D01*
X157480000Y-78740000D02*
X148590000Y-69850000D01*
X158750000Y-80010000D02*
X158750000Y-78740000D01*
X158750000Y-78740000D02*
X157480000Y-78740000D01*
X158750000Y-83820000D02*
X158750000Y-82550000D01*
X159549999Y-81750001D02*
X159549999Y-80809999D01*
X158750000Y-82550000D02*
X159549999Y-81750001D01*
G04 #@! TD*
M02*
