G04 #@! TF.GenerationSoftware,KiCad,Pcbnew,(5.0.2)-1*
G04 #@! TF.CreationDate,2019-06-05T09:41:08+02:00*
G04 #@! TF.ProjectId,circuit,63697263-7569-4742-9e6b-696361645f70,rev?*
G04 #@! TF.SameCoordinates,Original*
G04 #@! TF.FileFunction,Legend,Top*
G04 #@! TF.FilePolarity,Positive*
%FSLAX46Y46*%
G04 Gerber Fmt 4.6, Leading zero omitted, Abs format (unit mm)*
G04 Created by KiCad (PCBNEW (5.0.2)-1) date 05/06/2019 09:41:08*
%MOMM*%
%LPD*%
G01*
G04 APERTURE LIST*
%ADD10C,0.300000*%
%ADD11C,0.120000*%
%ADD12C,0.150000*%
G04 APERTURE END LIST*
D10*
X168258571Y-68472190D02*
X168258571Y-70269333D01*
X168150857Y-70628761D01*
X167935428Y-70868380D01*
X167612285Y-70988190D01*
X167396857Y-70988190D01*
X170305142Y-70988190D02*
X170305142Y-69670285D01*
X170197428Y-69430666D01*
X169982000Y-69310857D01*
X169551142Y-69310857D01*
X169335714Y-69430666D01*
X170305142Y-70868380D02*
X170089714Y-70988190D01*
X169551142Y-70988190D01*
X169335714Y-70868380D01*
X169228000Y-70628761D01*
X169228000Y-70389142D01*
X169335714Y-70149523D01*
X169551142Y-70029714D01*
X170089714Y-70029714D01*
X170305142Y-69909904D01*
X171274571Y-70868380D02*
X171490000Y-70988190D01*
X171920857Y-70988190D01*
X172136285Y-70868380D01*
X172244000Y-70628761D01*
X172244000Y-70508952D01*
X172136285Y-70269333D01*
X171920857Y-70149523D01*
X171597714Y-70149523D01*
X171382285Y-70029714D01*
X171274571Y-69790095D01*
X171274571Y-69670285D01*
X171382285Y-69430666D01*
X171597714Y-69310857D01*
X171920857Y-69310857D01*
X172136285Y-69430666D01*
X173213428Y-69310857D02*
X173213428Y-70988190D01*
X173213428Y-69550476D02*
X173321142Y-69430666D01*
X173536571Y-69310857D01*
X173859714Y-69310857D01*
X174075142Y-69430666D01*
X174182857Y-69670285D01*
X174182857Y-70988190D01*
X176229428Y-70988190D02*
X176229428Y-69670285D01*
X176121714Y-69430666D01*
X175906285Y-69310857D01*
X175475428Y-69310857D01*
X175260000Y-69430666D01*
X176229428Y-70868380D02*
X176014000Y-70988190D01*
X175475428Y-70988190D01*
X175260000Y-70868380D01*
X175152285Y-70628761D01*
X175152285Y-70389142D01*
X175260000Y-70149523D01*
X175475428Y-70029714D01*
X176014000Y-70029714D01*
X176229428Y-69909904D01*
X180753428Y-69310857D02*
X179030000Y-70029714D01*
X180753428Y-70748571D01*
X181615142Y-68472190D02*
X183015428Y-68472190D01*
X182261428Y-69430666D01*
X182584571Y-69430666D01*
X182800000Y-69550476D01*
X182907714Y-69670285D01*
X183015428Y-69909904D01*
X183015428Y-70508952D01*
X182907714Y-70748571D01*
X182800000Y-70868380D01*
X182584571Y-70988190D01*
X181938285Y-70988190D01*
X181722857Y-70868380D01*
X181615142Y-70748571D01*
D11*
G04 #@! TO.C,Dred1*
X169312335Y-61151392D02*
G75*
G03X166080000Y-60994484I-1672335J-1078608D01*
G01*
X169312335Y-63308608D02*
G75*
G02X166080000Y-63465516I-1672335J1078608D01*
G01*
X168681130Y-61150163D02*
G75*
G03X166599039Y-61150000I-1041130J-1079837D01*
G01*
X168681130Y-63309837D02*
G75*
G02X166599039Y-63310000I-1041130J1079837D01*
G01*
X166080000Y-60994000D02*
X166080000Y-61150000D01*
X166080000Y-63310000D02*
X166080000Y-63466000D01*
G04 #@! TO.C,Dred2*
X184552335Y-61151392D02*
G75*
G03X181320000Y-60994484I-1672335J-1078608D01*
G01*
X184552335Y-63308608D02*
G75*
G02X181320000Y-63465516I-1672335J1078608D01*
G01*
X183921130Y-61150163D02*
G75*
G03X181839039Y-61150000I-1041130J-1079837D01*
G01*
X183921130Y-63309837D02*
G75*
G02X181839039Y-63310000I-1041130J1079837D01*
G01*
X181320000Y-60994000D02*
X181320000Y-61150000D01*
X181320000Y-63310000D02*
X181320000Y-63466000D01*
G04 #@! TO.C,Dred3*
X168620000Y-91250000D02*
X168620000Y-91406000D01*
X168620000Y-88934000D02*
X168620000Y-89090000D01*
X171221130Y-91249837D02*
G75*
G02X169139039Y-91250000I-1041130J1079837D01*
G01*
X171221130Y-89090163D02*
G75*
G03X169139039Y-89090000I-1041130J-1079837D01*
G01*
X171852335Y-91248608D02*
G75*
G02X168620000Y-91405516I-1672335J1078608D01*
G01*
X171852335Y-89091392D02*
G75*
G03X168620000Y-88934484I-1672335J-1078608D01*
G01*
G04 #@! TO.C,Dred4*
X178780000Y-79820000D02*
X178780000Y-79976000D01*
X178780000Y-77504000D02*
X178780000Y-77660000D01*
X181381130Y-79819837D02*
G75*
G02X179299039Y-79820000I-1041130J1079837D01*
G01*
X181381130Y-77660163D02*
G75*
G03X179299039Y-77660000I-1041130J-1079837D01*
G01*
X182012335Y-79818608D02*
G75*
G02X178780000Y-79975516I-1672335J1078608D01*
G01*
X182012335Y-77661392D02*
G75*
G03X178780000Y-77504484I-1672335J-1078608D01*
G01*
G04 #@! TO.C,Dred5*
X150840000Y-63310000D02*
X150840000Y-63466000D01*
X150840000Y-60994000D02*
X150840000Y-61150000D01*
X153441130Y-63309837D02*
G75*
G02X151359039Y-63310000I-1041130J1079837D01*
G01*
X153441130Y-61150163D02*
G75*
G03X151359039Y-61150000I-1041130J-1079837D01*
G01*
X154072335Y-63308608D02*
G75*
G02X150840000Y-63465516I-1672335J1078608D01*
G01*
X154072335Y-61151392D02*
G75*
G03X150840000Y-60994484I-1672335J-1078608D01*
G01*
G04 #@! TO.C,Dred6*
X161692335Y-73851392D02*
G75*
G03X158460000Y-73694484I-1672335J-1078608D01*
G01*
X161692335Y-76008608D02*
G75*
G02X158460000Y-76165516I-1672335J1078608D01*
G01*
X161061130Y-73850163D02*
G75*
G03X158979039Y-73850000I-1041130J-1079837D01*
G01*
X161061130Y-76009837D02*
G75*
G02X158979039Y-76010000I-1041130J1079837D01*
G01*
X158460000Y-73694000D02*
X158460000Y-73850000D01*
X158460000Y-76010000D02*
X158460000Y-76166000D01*
G04 #@! TO.C,Dred7*
X138832335Y-61151392D02*
G75*
G03X135600000Y-60994484I-1672335J-1078608D01*
G01*
X138832335Y-63308608D02*
G75*
G02X135600000Y-63465516I-1672335J1078608D01*
G01*
X138201130Y-61150163D02*
G75*
G03X136119039Y-61150000I-1041130J-1079837D01*
G01*
X138201130Y-63309837D02*
G75*
G02X136119039Y-63310000I-1041130J1079837D01*
G01*
X135600000Y-60994000D02*
X135600000Y-61150000D01*
X135600000Y-63310000D02*
X135600000Y-63466000D01*
G04 #@! TO.C,Dred8*
X138140000Y-79820000D02*
X138140000Y-79976000D01*
X138140000Y-77504000D02*
X138140000Y-77660000D01*
X140741130Y-79819837D02*
G75*
G02X138659039Y-79820000I-1041130J1079837D01*
G01*
X140741130Y-77660163D02*
G75*
G03X138659039Y-77660000I-1041130J-1079837D01*
G01*
X141372335Y-79818608D02*
G75*
G02X138140000Y-79975516I-1672335J1078608D01*
G01*
X141372335Y-77661392D02*
G75*
G03X138140000Y-77504484I-1672335J-1078608D01*
G01*
G04 #@! TO.C,Dred9*
X161692335Y-100521392D02*
G75*
G03X158460000Y-100364484I-1672335J-1078608D01*
G01*
X161692335Y-102678608D02*
G75*
G02X158460000Y-102835516I-1672335J1078608D01*
G01*
X161061130Y-100520163D02*
G75*
G03X158979039Y-100520000I-1041130J-1079837D01*
G01*
X161061130Y-102679837D02*
G75*
G02X158979039Y-102680000I-1041130J1079837D01*
G01*
X158460000Y-100364000D02*
X158460000Y-100520000D01*
X158460000Y-102680000D02*
X158460000Y-102836000D01*
G04 #@! TO.C,Dred10*
X148300000Y-91250000D02*
X148300000Y-91406000D01*
X148300000Y-88934000D02*
X148300000Y-89090000D01*
X150901130Y-91249837D02*
G75*
G02X148819039Y-91250000I-1041130J1079837D01*
G01*
X150901130Y-89090163D02*
G75*
G03X148819039Y-89090000I-1041130J-1079837D01*
G01*
X151532335Y-91248608D02*
G75*
G02X148300000Y-91405516I-1672335J1078608D01*
G01*
X151532335Y-89091392D02*
G75*
G03X148300000Y-88934484I-1672335J-1078608D01*
G01*
G04 #@! TO.C,R1*
X160120000Y-95250000D02*
G75*
G03X160120000Y-95250000I-1370000J0D01*
G01*
X160120000Y-95250000D02*
X160190000Y-95250000D01*
G04 #@! TO.C,R2*
X160120000Y-80010000D02*
G75*
G03X160120000Y-80010000I-1370000J0D01*
G01*
X160120000Y-80010000D02*
X160190000Y-80010000D01*
G04 #@! TO.C,R3*
X160120000Y-87630000D02*
X160190000Y-87630000D01*
X160120000Y-87630000D02*
G75*
G03X160120000Y-87630000I-1370000J0D01*
G01*
G04 #@! TO.C,R4*
X160120000Y-83820000D02*
X160190000Y-83820000D01*
X160120000Y-83820000D02*
G75*
G03X160120000Y-83820000I-1370000J0D01*
G01*
G04 #@! TO.C,R5*
X160120000Y-91440000D02*
G75*
G03X160120000Y-91440000I-1370000J0D01*
G01*
X160120000Y-91440000D02*
X160190000Y-91440000D01*
G04 #@! TO.C,J1*
X140285000Y-70410000D02*
X139660000Y-70410000D01*
X139660000Y-70410000D02*
X139660000Y-68290000D01*
X139660000Y-68290000D02*
X140575507Y-68290000D01*
X139660000Y-70060000D02*
X137660000Y-70060000D01*
X137660000Y-70060000D02*
X137660000Y-69640000D01*
X137660000Y-69640000D02*
X139660000Y-69640000D01*
X139660000Y-70000000D02*
X137660000Y-70000000D01*
X139660000Y-69880000D02*
X137660000Y-69880000D01*
X139660000Y-69760000D02*
X137660000Y-69760000D01*
X140285000Y-69350000D02*
X139660000Y-69350000D01*
X139660000Y-69060000D02*
X137660000Y-69060000D01*
X137660000Y-69060000D02*
X137660000Y-68640000D01*
X137660000Y-68640000D02*
X139660000Y-68640000D01*
X141655000Y-69850000D02*
X141655000Y-70535000D01*
X141655000Y-70535000D02*
X140970000Y-70535000D01*
G04 #@! TO.C,SW1*
X146450000Y-77900000D02*
X153271000Y-77900000D01*
X146450000Y-82120000D02*
X153271000Y-82120000D01*
X146450000Y-77900000D02*
X146450000Y-78970000D01*
X146450000Y-81050000D02*
X146450000Y-82120000D01*
X153271000Y-77900000D02*
X153271000Y-79020000D01*
X153271000Y-81000000D02*
X153271000Y-82120000D01*
X146210000Y-77660000D02*
X147593000Y-77660000D01*
X146210000Y-77660000D02*
X146210000Y-78970000D01*
X148050000Y-79375000D02*
X148050000Y-80645000D01*
X148050000Y-80645000D02*
X151670000Y-80645000D01*
X151670000Y-80645000D02*
X151670000Y-79375000D01*
X151670000Y-79375000D02*
X148050000Y-79375000D01*
X148050000Y-79495000D02*
X149256667Y-79495000D01*
X148050000Y-79615000D02*
X149256667Y-79615000D01*
X148050000Y-79735000D02*
X149256667Y-79735000D01*
X148050000Y-79855000D02*
X149256667Y-79855000D01*
X148050000Y-79975000D02*
X149256667Y-79975000D01*
X148050000Y-80095000D02*
X149256667Y-80095000D01*
X148050000Y-80215000D02*
X149256667Y-80215000D01*
X148050000Y-80335000D02*
X149256667Y-80335000D01*
X148050000Y-80455000D02*
X149256667Y-80455000D01*
X148050000Y-80575000D02*
X149256667Y-80575000D01*
X149256667Y-79375000D02*
X149256667Y-80645000D01*
G04 #@! TO.C,Dred1*
D12*
X171902380Y-64158571D02*
X170902380Y-64158571D01*
X170902380Y-63920476D01*
X170950000Y-63777619D01*
X171045238Y-63682380D01*
X171140476Y-63634761D01*
X171330952Y-63587142D01*
X171473809Y-63587142D01*
X171664285Y-63634761D01*
X171759523Y-63682380D01*
X171854761Y-63777619D01*
X171902380Y-63920476D01*
X171902380Y-64158571D01*
X171902380Y-63158571D02*
X171235714Y-63158571D01*
X171426190Y-63158571D02*
X171330952Y-63110952D01*
X171283333Y-63063333D01*
X171235714Y-62968095D01*
X171235714Y-62872857D01*
X171854761Y-62158571D02*
X171902380Y-62253809D01*
X171902380Y-62444285D01*
X171854761Y-62539523D01*
X171759523Y-62587142D01*
X171378571Y-62587142D01*
X171283333Y-62539523D01*
X171235714Y-62444285D01*
X171235714Y-62253809D01*
X171283333Y-62158571D01*
X171378571Y-62110952D01*
X171473809Y-62110952D01*
X171569047Y-62587142D01*
X171902380Y-61253809D02*
X170902380Y-61253809D01*
X171854761Y-61253809D02*
X171902380Y-61349047D01*
X171902380Y-61539523D01*
X171854761Y-61634761D01*
X171807142Y-61682380D01*
X171711904Y-61730000D01*
X171426190Y-61730000D01*
X171330952Y-61682380D01*
X171283333Y-61634761D01*
X171235714Y-61539523D01*
X171235714Y-61349047D01*
X171283333Y-61253809D01*
X171902380Y-60253809D02*
X171902380Y-60825238D01*
X171902380Y-60539523D02*
X170902380Y-60539523D01*
X171045238Y-60634761D01*
X171140476Y-60730000D01*
X171188095Y-60825238D01*
G04 #@! TO.C,Dred2*
X179522380Y-64158571D02*
X178522380Y-64158571D01*
X178522380Y-63920476D01*
X178570000Y-63777619D01*
X178665238Y-63682380D01*
X178760476Y-63634761D01*
X178950952Y-63587142D01*
X179093809Y-63587142D01*
X179284285Y-63634761D01*
X179379523Y-63682380D01*
X179474761Y-63777619D01*
X179522380Y-63920476D01*
X179522380Y-64158571D01*
X179522380Y-63158571D02*
X178855714Y-63158571D01*
X179046190Y-63158571D02*
X178950952Y-63110952D01*
X178903333Y-63063333D01*
X178855714Y-62968095D01*
X178855714Y-62872857D01*
X179474761Y-62158571D02*
X179522380Y-62253809D01*
X179522380Y-62444285D01*
X179474761Y-62539523D01*
X179379523Y-62587142D01*
X178998571Y-62587142D01*
X178903333Y-62539523D01*
X178855714Y-62444285D01*
X178855714Y-62253809D01*
X178903333Y-62158571D01*
X178998571Y-62110952D01*
X179093809Y-62110952D01*
X179189047Y-62587142D01*
X179522380Y-61253809D02*
X178522380Y-61253809D01*
X179474761Y-61253809D02*
X179522380Y-61349047D01*
X179522380Y-61539523D01*
X179474761Y-61634761D01*
X179427142Y-61682380D01*
X179331904Y-61730000D01*
X179046190Y-61730000D01*
X178950952Y-61682380D01*
X178903333Y-61634761D01*
X178855714Y-61539523D01*
X178855714Y-61349047D01*
X178903333Y-61253809D01*
X178617619Y-60825238D02*
X178570000Y-60777619D01*
X178522380Y-60682380D01*
X178522380Y-60444285D01*
X178570000Y-60349047D01*
X178617619Y-60301428D01*
X178712857Y-60253809D01*
X178808095Y-60253809D01*
X178950952Y-60301428D01*
X179522380Y-60872857D01*
X179522380Y-60253809D01*
G04 #@! TO.C,Dred3*
X168251428Y-87662380D02*
X168251428Y-86662380D01*
X168489523Y-86662380D01*
X168632380Y-86710000D01*
X168727619Y-86805238D01*
X168775238Y-86900476D01*
X168822857Y-87090952D01*
X168822857Y-87233809D01*
X168775238Y-87424285D01*
X168727619Y-87519523D01*
X168632380Y-87614761D01*
X168489523Y-87662380D01*
X168251428Y-87662380D01*
X169251428Y-87662380D02*
X169251428Y-86995714D01*
X169251428Y-87186190D02*
X169299047Y-87090952D01*
X169346666Y-87043333D01*
X169441904Y-86995714D01*
X169537142Y-86995714D01*
X170251428Y-87614761D02*
X170156190Y-87662380D01*
X169965714Y-87662380D01*
X169870476Y-87614761D01*
X169822857Y-87519523D01*
X169822857Y-87138571D01*
X169870476Y-87043333D01*
X169965714Y-86995714D01*
X170156190Y-86995714D01*
X170251428Y-87043333D01*
X170299047Y-87138571D01*
X170299047Y-87233809D01*
X169822857Y-87329047D01*
X171156190Y-87662380D02*
X171156190Y-86662380D01*
X171156190Y-87614761D02*
X171060952Y-87662380D01*
X170870476Y-87662380D01*
X170775238Y-87614761D01*
X170727619Y-87567142D01*
X170680000Y-87471904D01*
X170680000Y-87186190D01*
X170727619Y-87090952D01*
X170775238Y-87043333D01*
X170870476Y-86995714D01*
X171060952Y-86995714D01*
X171156190Y-87043333D01*
X171537142Y-86662380D02*
X172156190Y-86662380D01*
X171822857Y-87043333D01*
X171965714Y-87043333D01*
X172060952Y-87090952D01*
X172108571Y-87138571D01*
X172156190Y-87233809D01*
X172156190Y-87471904D01*
X172108571Y-87567142D01*
X172060952Y-87614761D01*
X171965714Y-87662380D01*
X171680000Y-87662380D01*
X171584761Y-87614761D01*
X171537142Y-87567142D01*
G04 #@! TO.C,Dred4*
X178411428Y-76232380D02*
X178411428Y-75232380D01*
X178649523Y-75232380D01*
X178792380Y-75280000D01*
X178887619Y-75375238D01*
X178935238Y-75470476D01*
X178982857Y-75660952D01*
X178982857Y-75803809D01*
X178935238Y-75994285D01*
X178887619Y-76089523D01*
X178792380Y-76184761D01*
X178649523Y-76232380D01*
X178411428Y-76232380D01*
X179411428Y-76232380D02*
X179411428Y-75565714D01*
X179411428Y-75756190D02*
X179459047Y-75660952D01*
X179506666Y-75613333D01*
X179601904Y-75565714D01*
X179697142Y-75565714D01*
X180411428Y-76184761D02*
X180316190Y-76232380D01*
X180125714Y-76232380D01*
X180030476Y-76184761D01*
X179982857Y-76089523D01*
X179982857Y-75708571D01*
X180030476Y-75613333D01*
X180125714Y-75565714D01*
X180316190Y-75565714D01*
X180411428Y-75613333D01*
X180459047Y-75708571D01*
X180459047Y-75803809D01*
X179982857Y-75899047D01*
X181316190Y-76232380D02*
X181316190Y-75232380D01*
X181316190Y-76184761D02*
X181220952Y-76232380D01*
X181030476Y-76232380D01*
X180935238Y-76184761D01*
X180887619Y-76137142D01*
X180840000Y-76041904D01*
X180840000Y-75756190D01*
X180887619Y-75660952D01*
X180935238Y-75613333D01*
X181030476Y-75565714D01*
X181220952Y-75565714D01*
X181316190Y-75613333D01*
X182220952Y-75565714D02*
X182220952Y-76232380D01*
X181982857Y-75184761D02*
X181744761Y-75899047D01*
X182363809Y-75899047D01*
G04 #@! TO.C,Dred5*
X149042380Y-64158571D02*
X148042380Y-64158571D01*
X148042380Y-63920476D01*
X148090000Y-63777619D01*
X148185238Y-63682380D01*
X148280476Y-63634761D01*
X148470952Y-63587142D01*
X148613809Y-63587142D01*
X148804285Y-63634761D01*
X148899523Y-63682380D01*
X148994761Y-63777619D01*
X149042380Y-63920476D01*
X149042380Y-64158571D01*
X149042380Y-63158571D02*
X148375714Y-63158571D01*
X148566190Y-63158571D02*
X148470952Y-63110952D01*
X148423333Y-63063333D01*
X148375714Y-62968095D01*
X148375714Y-62872857D01*
X148994761Y-62158571D02*
X149042380Y-62253809D01*
X149042380Y-62444285D01*
X148994761Y-62539523D01*
X148899523Y-62587142D01*
X148518571Y-62587142D01*
X148423333Y-62539523D01*
X148375714Y-62444285D01*
X148375714Y-62253809D01*
X148423333Y-62158571D01*
X148518571Y-62110952D01*
X148613809Y-62110952D01*
X148709047Y-62587142D01*
X149042380Y-61253809D02*
X148042380Y-61253809D01*
X148994761Y-61253809D02*
X149042380Y-61349047D01*
X149042380Y-61539523D01*
X148994761Y-61634761D01*
X148947142Y-61682380D01*
X148851904Y-61730000D01*
X148566190Y-61730000D01*
X148470952Y-61682380D01*
X148423333Y-61634761D01*
X148375714Y-61539523D01*
X148375714Y-61349047D01*
X148423333Y-61253809D01*
X148042380Y-60301428D02*
X148042380Y-60777619D01*
X148518571Y-60825238D01*
X148470952Y-60777619D01*
X148423333Y-60682380D01*
X148423333Y-60444285D01*
X148470952Y-60349047D01*
X148518571Y-60301428D01*
X148613809Y-60253809D01*
X148851904Y-60253809D01*
X148947142Y-60301428D01*
X148994761Y-60349047D01*
X149042380Y-60444285D01*
X149042380Y-60682380D01*
X148994761Y-60777619D01*
X148947142Y-60825238D01*
G04 #@! TO.C,Dred6*
X158091428Y-72422380D02*
X158091428Y-71422380D01*
X158329523Y-71422380D01*
X158472380Y-71470000D01*
X158567619Y-71565238D01*
X158615238Y-71660476D01*
X158662857Y-71850952D01*
X158662857Y-71993809D01*
X158615238Y-72184285D01*
X158567619Y-72279523D01*
X158472380Y-72374761D01*
X158329523Y-72422380D01*
X158091428Y-72422380D01*
X159091428Y-72422380D02*
X159091428Y-71755714D01*
X159091428Y-71946190D02*
X159139047Y-71850952D01*
X159186666Y-71803333D01*
X159281904Y-71755714D01*
X159377142Y-71755714D01*
X160091428Y-72374761D02*
X159996190Y-72422380D01*
X159805714Y-72422380D01*
X159710476Y-72374761D01*
X159662857Y-72279523D01*
X159662857Y-71898571D01*
X159710476Y-71803333D01*
X159805714Y-71755714D01*
X159996190Y-71755714D01*
X160091428Y-71803333D01*
X160139047Y-71898571D01*
X160139047Y-71993809D01*
X159662857Y-72089047D01*
X160996190Y-72422380D02*
X160996190Y-71422380D01*
X160996190Y-72374761D02*
X160900952Y-72422380D01*
X160710476Y-72422380D01*
X160615238Y-72374761D01*
X160567619Y-72327142D01*
X160520000Y-72231904D01*
X160520000Y-71946190D01*
X160567619Y-71850952D01*
X160615238Y-71803333D01*
X160710476Y-71755714D01*
X160900952Y-71755714D01*
X160996190Y-71803333D01*
X161900952Y-71422380D02*
X161710476Y-71422380D01*
X161615238Y-71470000D01*
X161567619Y-71517619D01*
X161472380Y-71660476D01*
X161424761Y-71850952D01*
X161424761Y-72231904D01*
X161472380Y-72327142D01*
X161520000Y-72374761D01*
X161615238Y-72422380D01*
X161805714Y-72422380D01*
X161900952Y-72374761D01*
X161948571Y-72327142D01*
X161996190Y-72231904D01*
X161996190Y-71993809D01*
X161948571Y-71898571D01*
X161900952Y-71850952D01*
X161805714Y-71803333D01*
X161615238Y-71803333D01*
X161520000Y-71850952D01*
X161472380Y-71898571D01*
X161424761Y-71993809D01*
G04 #@! TO.C,Dred7*
X141422380Y-64158571D02*
X140422380Y-64158571D01*
X140422380Y-63920476D01*
X140470000Y-63777619D01*
X140565238Y-63682380D01*
X140660476Y-63634761D01*
X140850952Y-63587142D01*
X140993809Y-63587142D01*
X141184285Y-63634761D01*
X141279523Y-63682380D01*
X141374761Y-63777619D01*
X141422380Y-63920476D01*
X141422380Y-64158571D01*
X141422380Y-63158571D02*
X140755714Y-63158571D01*
X140946190Y-63158571D02*
X140850952Y-63110952D01*
X140803333Y-63063333D01*
X140755714Y-62968095D01*
X140755714Y-62872857D01*
X141374761Y-62158571D02*
X141422380Y-62253809D01*
X141422380Y-62444285D01*
X141374761Y-62539523D01*
X141279523Y-62587142D01*
X140898571Y-62587142D01*
X140803333Y-62539523D01*
X140755714Y-62444285D01*
X140755714Y-62253809D01*
X140803333Y-62158571D01*
X140898571Y-62110952D01*
X140993809Y-62110952D01*
X141089047Y-62587142D01*
X141422380Y-61253809D02*
X140422380Y-61253809D01*
X141374761Y-61253809D02*
X141422380Y-61349047D01*
X141422380Y-61539523D01*
X141374761Y-61634761D01*
X141327142Y-61682380D01*
X141231904Y-61730000D01*
X140946190Y-61730000D01*
X140850952Y-61682380D01*
X140803333Y-61634761D01*
X140755714Y-61539523D01*
X140755714Y-61349047D01*
X140803333Y-61253809D01*
X140422380Y-60872857D02*
X140422380Y-60206190D01*
X141422380Y-60634761D01*
G04 #@! TO.C,Dred8*
X143962380Y-81938571D02*
X142962380Y-81938571D01*
X142962380Y-81700476D01*
X143010000Y-81557619D01*
X143105238Y-81462380D01*
X143200476Y-81414761D01*
X143390952Y-81367142D01*
X143533809Y-81367142D01*
X143724285Y-81414761D01*
X143819523Y-81462380D01*
X143914761Y-81557619D01*
X143962380Y-81700476D01*
X143962380Y-81938571D01*
X143962380Y-80938571D02*
X143295714Y-80938571D01*
X143486190Y-80938571D02*
X143390952Y-80890952D01*
X143343333Y-80843333D01*
X143295714Y-80748095D01*
X143295714Y-80652857D01*
X143914761Y-79938571D02*
X143962380Y-80033809D01*
X143962380Y-80224285D01*
X143914761Y-80319523D01*
X143819523Y-80367142D01*
X143438571Y-80367142D01*
X143343333Y-80319523D01*
X143295714Y-80224285D01*
X143295714Y-80033809D01*
X143343333Y-79938571D01*
X143438571Y-79890952D01*
X143533809Y-79890952D01*
X143629047Y-80367142D01*
X143962380Y-79033809D02*
X142962380Y-79033809D01*
X143914761Y-79033809D02*
X143962380Y-79129047D01*
X143962380Y-79319523D01*
X143914761Y-79414761D01*
X143867142Y-79462380D01*
X143771904Y-79510000D01*
X143486190Y-79510000D01*
X143390952Y-79462380D01*
X143343333Y-79414761D01*
X143295714Y-79319523D01*
X143295714Y-79129047D01*
X143343333Y-79033809D01*
X143390952Y-78414761D02*
X143343333Y-78510000D01*
X143295714Y-78557619D01*
X143200476Y-78605238D01*
X143152857Y-78605238D01*
X143057619Y-78557619D01*
X143010000Y-78510000D01*
X142962380Y-78414761D01*
X142962380Y-78224285D01*
X143010000Y-78129047D01*
X143057619Y-78081428D01*
X143152857Y-78033809D01*
X143200476Y-78033809D01*
X143295714Y-78081428D01*
X143343333Y-78129047D01*
X143390952Y-78224285D01*
X143390952Y-78414761D01*
X143438571Y-78510000D01*
X143486190Y-78557619D01*
X143581428Y-78605238D01*
X143771904Y-78605238D01*
X143867142Y-78557619D01*
X143914761Y-78510000D01*
X143962380Y-78414761D01*
X143962380Y-78224285D01*
X143914761Y-78129047D01*
X143867142Y-78081428D01*
X143771904Y-78033809D01*
X143581428Y-78033809D01*
X143486190Y-78081428D01*
X143438571Y-78129047D01*
X143390952Y-78224285D01*
G04 #@! TO.C,Dred9*
X158091428Y-99092380D02*
X158091428Y-98092380D01*
X158329523Y-98092380D01*
X158472380Y-98140000D01*
X158567619Y-98235238D01*
X158615238Y-98330476D01*
X158662857Y-98520952D01*
X158662857Y-98663809D01*
X158615238Y-98854285D01*
X158567619Y-98949523D01*
X158472380Y-99044761D01*
X158329523Y-99092380D01*
X158091428Y-99092380D01*
X159091428Y-99092380D02*
X159091428Y-98425714D01*
X159091428Y-98616190D02*
X159139047Y-98520952D01*
X159186666Y-98473333D01*
X159281904Y-98425714D01*
X159377142Y-98425714D01*
X160091428Y-99044761D02*
X159996190Y-99092380D01*
X159805714Y-99092380D01*
X159710476Y-99044761D01*
X159662857Y-98949523D01*
X159662857Y-98568571D01*
X159710476Y-98473333D01*
X159805714Y-98425714D01*
X159996190Y-98425714D01*
X160091428Y-98473333D01*
X160139047Y-98568571D01*
X160139047Y-98663809D01*
X159662857Y-98759047D01*
X160996190Y-99092380D02*
X160996190Y-98092380D01*
X160996190Y-99044761D02*
X160900952Y-99092380D01*
X160710476Y-99092380D01*
X160615238Y-99044761D01*
X160567619Y-98997142D01*
X160520000Y-98901904D01*
X160520000Y-98616190D01*
X160567619Y-98520952D01*
X160615238Y-98473333D01*
X160710476Y-98425714D01*
X160900952Y-98425714D01*
X160996190Y-98473333D01*
X161520000Y-99092380D02*
X161710476Y-99092380D01*
X161805714Y-99044761D01*
X161853333Y-98997142D01*
X161948571Y-98854285D01*
X161996190Y-98663809D01*
X161996190Y-98282857D01*
X161948571Y-98187619D01*
X161900952Y-98140000D01*
X161805714Y-98092380D01*
X161615238Y-98092380D01*
X161520000Y-98140000D01*
X161472380Y-98187619D01*
X161424761Y-98282857D01*
X161424761Y-98520952D01*
X161472380Y-98616190D01*
X161520000Y-98663809D01*
X161615238Y-98711428D01*
X161805714Y-98711428D01*
X161900952Y-98663809D01*
X161948571Y-98616190D01*
X161996190Y-98520952D01*
G04 #@! TO.C,Dred10*
X147455238Y-87662380D02*
X147455238Y-86662380D01*
X147693333Y-86662380D01*
X147836190Y-86710000D01*
X147931428Y-86805238D01*
X147979047Y-86900476D01*
X148026666Y-87090952D01*
X148026666Y-87233809D01*
X147979047Y-87424285D01*
X147931428Y-87519523D01*
X147836190Y-87614761D01*
X147693333Y-87662380D01*
X147455238Y-87662380D01*
X148455238Y-87662380D02*
X148455238Y-86995714D01*
X148455238Y-87186190D02*
X148502857Y-87090952D01*
X148550476Y-87043333D01*
X148645714Y-86995714D01*
X148740952Y-86995714D01*
X149455238Y-87614761D02*
X149360000Y-87662380D01*
X149169523Y-87662380D01*
X149074285Y-87614761D01*
X149026666Y-87519523D01*
X149026666Y-87138571D01*
X149074285Y-87043333D01*
X149169523Y-86995714D01*
X149360000Y-86995714D01*
X149455238Y-87043333D01*
X149502857Y-87138571D01*
X149502857Y-87233809D01*
X149026666Y-87329047D01*
X150360000Y-87662380D02*
X150360000Y-86662380D01*
X150360000Y-87614761D02*
X150264761Y-87662380D01*
X150074285Y-87662380D01*
X149979047Y-87614761D01*
X149931428Y-87567142D01*
X149883809Y-87471904D01*
X149883809Y-87186190D01*
X149931428Y-87090952D01*
X149979047Y-87043333D01*
X150074285Y-86995714D01*
X150264761Y-86995714D01*
X150360000Y-87043333D01*
X151360000Y-87662380D02*
X150788571Y-87662380D01*
X151074285Y-87662380D02*
X151074285Y-86662380D01*
X150979047Y-86805238D01*
X150883809Y-86900476D01*
X150788571Y-86948095D01*
X151979047Y-86662380D02*
X152074285Y-86662380D01*
X152169523Y-86710000D01*
X152217142Y-86757619D01*
X152264761Y-86852857D01*
X152312380Y-87043333D01*
X152312380Y-87281428D01*
X152264761Y-87471904D01*
X152217142Y-87567142D01*
X152169523Y-87614761D01*
X152074285Y-87662380D01*
X151979047Y-87662380D01*
X151883809Y-87614761D01*
X151836190Y-87567142D01*
X151788571Y-87471904D01*
X151740952Y-87281428D01*
X151740952Y-87043333D01*
X151788571Y-86852857D01*
X151836190Y-86757619D01*
X151883809Y-86710000D01*
X151979047Y-86662380D01*
G04 #@! TO.C,R1*
X159853333Y-93332380D02*
X159520000Y-92856190D01*
X159281904Y-93332380D02*
X159281904Y-92332380D01*
X159662857Y-92332380D01*
X159758095Y-92380000D01*
X159805714Y-92427619D01*
X159853333Y-92522857D01*
X159853333Y-92665714D01*
X159805714Y-92760952D01*
X159758095Y-92808571D01*
X159662857Y-92856190D01*
X159281904Y-92856190D01*
X160805714Y-93332380D02*
X160234285Y-93332380D01*
X160520000Y-93332380D02*
X160520000Y-92332380D01*
X160424761Y-92475238D01*
X160329523Y-92570476D01*
X160234285Y-92618095D01*
G04 #@! TO.C,R2*
X159853333Y-78092380D02*
X159520000Y-77616190D01*
X159281904Y-78092380D02*
X159281904Y-77092380D01*
X159662857Y-77092380D01*
X159758095Y-77140000D01*
X159805714Y-77187619D01*
X159853333Y-77282857D01*
X159853333Y-77425714D01*
X159805714Y-77520952D01*
X159758095Y-77568571D01*
X159662857Y-77616190D01*
X159281904Y-77616190D01*
X160234285Y-77187619D02*
X160281904Y-77140000D01*
X160377142Y-77092380D01*
X160615238Y-77092380D01*
X160710476Y-77140000D01*
X160758095Y-77187619D01*
X160805714Y-77282857D01*
X160805714Y-77378095D01*
X160758095Y-77520952D01*
X160186666Y-78092380D01*
X160805714Y-78092380D01*
G04 #@! TO.C,R3*
X159853333Y-85712380D02*
X159520000Y-85236190D01*
X159281904Y-85712380D02*
X159281904Y-84712380D01*
X159662857Y-84712380D01*
X159758095Y-84760000D01*
X159805714Y-84807619D01*
X159853333Y-84902857D01*
X159853333Y-85045714D01*
X159805714Y-85140952D01*
X159758095Y-85188571D01*
X159662857Y-85236190D01*
X159281904Y-85236190D01*
X160186666Y-84712380D02*
X160805714Y-84712380D01*
X160472380Y-85093333D01*
X160615238Y-85093333D01*
X160710476Y-85140952D01*
X160758095Y-85188571D01*
X160805714Y-85283809D01*
X160805714Y-85521904D01*
X160758095Y-85617142D01*
X160710476Y-85664761D01*
X160615238Y-85712380D01*
X160329523Y-85712380D01*
X160234285Y-85664761D01*
X160186666Y-85617142D01*
G04 #@! TO.C,R4*
X159853333Y-81902380D02*
X159520000Y-81426190D01*
X159281904Y-81902380D02*
X159281904Y-80902380D01*
X159662857Y-80902380D01*
X159758095Y-80950000D01*
X159805714Y-80997619D01*
X159853333Y-81092857D01*
X159853333Y-81235714D01*
X159805714Y-81330952D01*
X159758095Y-81378571D01*
X159662857Y-81426190D01*
X159281904Y-81426190D01*
X160710476Y-81235714D02*
X160710476Y-81902380D01*
X160472380Y-80854761D02*
X160234285Y-81569047D01*
X160853333Y-81569047D01*
G04 #@! TO.C,R5*
X159853333Y-89522380D02*
X159520000Y-89046190D01*
X159281904Y-89522380D02*
X159281904Y-88522380D01*
X159662857Y-88522380D01*
X159758095Y-88570000D01*
X159805714Y-88617619D01*
X159853333Y-88712857D01*
X159853333Y-88855714D01*
X159805714Y-88950952D01*
X159758095Y-88998571D01*
X159662857Y-89046190D01*
X159281904Y-89046190D01*
X160758095Y-88522380D02*
X160281904Y-88522380D01*
X160234285Y-88998571D01*
X160281904Y-88950952D01*
X160377142Y-88903333D01*
X160615238Y-88903333D01*
X160710476Y-88950952D01*
X160758095Y-88998571D01*
X160805714Y-89093809D01*
X160805714Y-89331904D01*
X160758095Y-89427142D01*
X160710476Y-89474761D01*
X160615238Y-89522380D01*
X160377142Y-89522380D01*
X160281904Y-89474761D01*
X160234285Y-89427142D01*
G04 #@! TO.C,J1*
X139261666Y-70802380D02*
X139261666Y-71516666D01*
X139214047Y-71659523D01*
X139118809Y-71754761D01*
X138975952Y-71802380D01*
X138880714Y-71802380D01*
X140261666Y-71802380D02*
X139690238Y-71802380D01*
X139975952Y-71802380D02*
X139975952Y-70802380D01*
X139880714Y-70945238D01*
X139785476Y-71040476D01*
X139690238Y-71088095D01*
G04 #@! TO.C,SW1*
X148526666Y-77304761D02*
X148669523Y-77352380D01*
X148907619Y-77352380D01*
X149002857Y-77304761D01*
X149050476Y-77257142D01*
X149098095Y-77161904D01*
X149098095Y-77066666D01*
X149050476Y-76971428D01*
X149002857Y-76923809D01*
X148907619Y-76876190D01*
X148717142Y-76828571D01*
X148621904Y-76780952D01*
X148574285Y-76733333D01*
X148526666Y-76638095D01*
X148526666Y-76542857D01*
X148574285Y-76447619D01*
X148621904Y-76400000D01*
X148717142Y-76352380D01*
X148955238Y-76352380D01*
X149098095Y-76400000D01*
X149431428Y-76352380D02*
X149669523Y-77352380D01*
X149860000Y-76638095D01*
X150050476Y-77352380D01*
X150288571Y-76352380D01*
X151193333Y-77352380D02*
X150621904Y-77352380D01*
X150907619Y-77352380D02*
X150907619Y-76352380D01*
X150812380Y-76495238D01*
X150717142Y-76590476D01*
X150621904Y-76638095D01*
G04 #@! TD*
M02*
